<svg fill="none" height="32" viewBox="0 0 32 32" width="32" xmlns="http://www.w3.org/2000/svg"><g fill="#212121"><path d="m23.2384 10.8137c0-.537-.3126-1.02487-.8005-1.24924-.4878-.22437-1.0617-.1442-1.4694.20529l-4.918 4.21585c-.0457.0392-.1128.0402-.1597.0024l-4.8918-3.9391c-.4123-.33199-.9786-.39783-1.45606-.16928-.47747.22858-.78134.71088-.78134 1.24028v10.4542c0 .7594.6156 1.375 1.375 1.375s1.375-.6156 1.375-1.375v-7.3205c0-.105.1216-.1632.2034-.0974l3.4218 2.7554c.5158.4154 1.2544.404 1.7572-.027l3.3881-2.9043c.081-.0695.2063-.0119.2063.0949v7.4989c0 .7594.6156 1.375 1.375 1.375s1.375-.6156 1.375-1.375z"/><path d="m16 1c-8.28427 0-15 6.71573-15 15 0 8.2843 6.71573 15 15 15 8.2843 0 15-6.7157 15-15 0-8.28427-6.7157-15-15-15zm-13 15c0-7.1797 5.8203-13 13-13s13 5.8203 13 13-5.8203 13-13 13-13-5.8203-13-13z"/></g></svg>